<?xml version="1.0" encoding="UTF-8"?>
<svg version="1.1" xmlns="http://www.w3.org/2000/svg" width="2508" height="1578">
<path d="M0 0 C-0.64609968 4.87997407 -2.67197821 8.87802409 -4.796875 13.25390625 C-5.37402252 14.46015152 -5.37402252 14.46015152 -5.96282959 15.69076538 C-6.78961365 17.41738977 -7.61890043 19.14281754 -8.45043945 20.86715698 C-10.20855111 24.51355421 -11.95402007 28.16595038 -13.69995117 31.81819153 C-14.57714071 33.65309291 -15.45490782 35.48771829 -16.33325195 37.32206726 C-19.77105523 44.50497602 -23.15729968 51.70975712 -26.5 58.9375 C-26.99878662 60.01507568 -27.49757324 61.09265137 -28.01147461 62.20288086 C-29.36475891 65.12911239 -30.71674018 68.05594213 -32.06829834 70.98297119 C-35.47852685 78.36573055 -38.89535614 85.74543959 -42.3125 93.125 C-42.71784973 94.00053528 -43.12319946 94.87607056 -43.54083252 95.77813721 C-49.43903462 108.51469845 -55.38303115 121.22879776 -61.37069702 133.92352295 C-66.88933986 145.62392582 -72.35352368 157.34845264 -77.79296875 169.0859375 C-81.16207898 176.35475913 -84.54803776 183.61565343 -87.9375 190.875 C-88.22820374 191.49765747 -88.51890747 192.12031494 -88.81842041 192.76184082 C-90.29007881 195.91389482 -91.76193013 199.06585868 -93.23388672 202.21777344 C-95.86574346 207.85365032 -98.49580879 213.49036317 -101.12600708 219.12701416 C-102.58393113 222.25137712 -104.04197146 225.37568581 -105.5 228.5 C-106.08333389 229.74999974 -106.66666722 230.99999974 -107.25 232.25 C-113.08333333 244.75 -118.91666667 257.25 -124.75 269.75 C-125.03874496 270.36873993 -125.32748993 270.98747986 -125.62498474 271.62496948 C-126.20836671 272.87507225 -126.79175091 274.12517397 -127.37513733 275.37527466 C-128.83274481 278.49869384 -130.29031367 281.62213103 -131.74780273 284.74560547 C-134.38142338 290.38949208 -137.01532822 296.03324517 -139.65066528 301.67633057 C-145.61356167 314.44482504 -151.56930771 327.21650353 -157.5 340 C-163.72394973 353.41560741 -169.97611725 366.81792111 -176.23388672 380.21777344 C-178.86574346 385.85365032 -181.49580879 391.49036317 -184.12600708 397.12701416 C-185.58393113 400.25137712 -187.04197146 403.37568581 -188.5 406.5 C-189.08333389 407.74999974 -189.66666722 408.99999974 -190.25 410.25 C-205.41666667 442.75 -220.58333333 475.25 -235.75 507.75 C-236.03874496 508.36873993 -236.32748993 508.98747986 -236.62498474 509.62496948 C-237.20836671 510.87507225 -237.79175091 512.12517397 -238.37513733 513.37527466 C-239.83274481 516.49869384 -241.29031367 519.62213103 -242.74780273 522.74560547 C-245.38136179 528.38936009 -248.01520144 534.03298289 -250.65048218 539.67593384 C-252.12134424 542.82553411 -253.59195557 545.97525142 -255.0625 549.125 C-255.34887329 549.73833191 -255.63524658 550.35166382 -255.93029785 550.98358154 C-259.19432701 557.97506279 -262.45231015 564.96929964 -265.69921875 571.96875 C-265.99953506 572.616091 -266.29985138 573.26343201 -266.60926819 573.9303894 C-268.04526998 577.02621595 -269.48034979 580.12246363 -270.91430664 583.21923828 C-271.4221167 584.31478027 -271.92992676 585.41032227 -272.453125 586.5390625 C-272.89817383 587.50021973 -273.34322266 588.46137695 -273.80175781 589.45166016 C-274.19717773 590.2926123 -274.59259766 591.13356445 -275 592 C-275.24740936 592.69749863 -275.49481873 593.39499725 -275.74972534 594.1136322 C-277 596 -277 596 -279.30148315 596.59825134 C-280.25886383 596.64180252 -281.21624451 596.6853537 -282.20263672 596.73022461 C-283.2875238 596.78556366 -284.37241089 596.84090271 -285.49017334 596.8979187 C-286.64841614 596.93160553 -287.80665894 596.96529236 -289 597 C-290.13165588 597.03715118 -291.26331177 597.07430237 -292.42926025 597.11257935 C-296.20527857 597.21117981 -299.98090532 597.26914152 -303.7578125 597.31640625 C-305.19877463 597.33720411 -306.63973322 597.35824815 -308.08068848 597.3795166 C-311.95689878 597.43521717 -315.833164 597.48473799 -319.70948029 597.53242874 C-322.13371013 597.56260843 -324.55791342 597.59444013 -326.9821167 597.62667847 C-363.65428993 598.10992303 -400.32541622 598.10677122 -437 598 C-443.26698668 586.92401688 -449.24749094 575.75803612 -454.87490845 564.34393311 C-456.81714985 560.40550354 -458.77379371 556.47424257 -460.73046875 552.54296875 C-461.10817917 551.78361023 -461.48588959 551.02425171 -461.87504578 550.24188232 C-464.97174345 544.02852349 -468.17460629 537.87756093 -471.4453125 531.75415039 C-475.50877502 524.11508522 -479.3333906 516.35833527 -483.18481445 508.61083984 C-486.38002104 502.19785567 -489.63348655 495.82463018 -493 489.5 C-497.55189692 480.94840349 -501.87137784 472.28773877 -506.18359375 463.61328125 C-509.75439753 456.44646802 -513.42165816 449.34216104 -517.18481445 442.27490234 C-521.3929867 434.33415351 -525.38642 426.28715029 -529.36376953 418.22875977 C-532.65905379 411.57628705 -536.07721064 405.10198397 -540.0234375 398.80859375 C-542.73329955 391.01503048 -538.75338075 380.36800093 -537.12353516 372.51489258 C-536.82561783 371.06432672 -536.52806131 369.61368672 -536.23083496 368.16297913 C-535.42388363 364.2295083 -534.61193753 360.29708339 -533.79912233 356.36482072 C-532.93642871 352.1866776 -532.07850518 348.00755512 -531.22006226 343.82853699 C-529.58249441 335.86016092 -527.94086823 327.8926268 -526.29769838 319.92540425 C-524.29294276 310.2041786 -522.29279548 300.48200622 -520.29296875 290.75976562 C-519.58015551 287.29458282 -518.86732081 283.82940443 -518.15447998 280.36422729 C-517.89168153 279.08669675 -517.89168153 279.08669675 -517.62357402 277.7833575 C-516.57070745 272.66537246 -515.51732937 267.54749301 -514.46353316 262.4296993 C-508.60171639 233.96136175 -502.78234255 205.48459582 -497 177 C-497.27687653 178.01251831 -497.55375305 179.02503662 -497.83901978 180.0682373 C-509.95232767 224.36449178 -522.06780442 268.66013219 -534.25 312.9375 C-534.47198311 313.7443222 -534.69396622 314.55114441 -534.92267609 315.38241577 C-536.94075514 322.71710991 -538.95918858 330.05170649 -540.97799683 337.38619995 C-544.14829562 348.90418807 -547.31692433 360.42263457 -550.484375 371.94140625 C-550.71171577 372.7681529 -550.93905655 373.59489956 -551.17328644 374.44669914 C-552.32253697 378.62609128 -553.47176038 382.80549087 -554.62097168 386.9848938 C-556.68474484 394.49028613 -558.74875766 401.99561256 -560.81275177 409.50094414 C-561.95851094 413.66729341 -563.10425469 417.83364692 -564.25 422 C-564.70833326 423.66666669 -565.16666659 425.33333335 -565.625 427 C-565.851875 427.825 -566.07875 428.65 -566.3125 429.5 C-567 432 -567.6875 434.5 -568.375 437 C-568.71532147 438.23753352 -568.71532147 438.23753352 -569.06251812 439.50006771 C-569.52078981 441.16650902 -569.97906275 442.83294998 -570.43733692 444.4993906 C-571.58412354 448.6695025 -572.7308885 452.83962035 -573.87760925 457.00975037 C-575.92870349 464.46861649 -577.97993702 471.92744412 -580.03200436 479.38604259 C-581.16337252 483.49821711 -582.29461052 487.61042742 -583.42578125 491.72265625 C-583.65034815 492.53903124 -583.87491505 493.35540623 -584.106287 494.19651985 C-587.28042649 505.73655942 -590.44836192 517.27828891 -593.61227417 528.82113647 C-595.39760279 535.33441687 -597.1845237 541.84726011 -598.97179985 548.36000633 C-600.42915458 553.6711205 -601.88437891 558.98281226 -603.33799267 564.29495144 C-604.23546974 567.57269824 -605.13500011 570.84987896 -606.03508949 574.12690926 C-606.45024051 575.64002948 -606.86454455 577.15338239 -607.27791405 578.66699028 C-609.33025676 586.18033969 -611.43570083 593.64221844 -614 601 C-616.73986565 598.26013435 -617.25247336 595.15240043 -618.23291016 591.50878906 C-618.44876235 590.72794732 -618.66461454 589.94710558 -618.88700771 589.14260197 C-619.61068518 586.51863843 -620.32477465 583.89215873 -621.0390625 581.265625 C-621.55263445 579.39681637 -622.06684463 577.52818304 -622.58164978 575.65971375 C-623.68841017 571.63816651 -624.79110091 567.61553383 -625.89065552 563.5920105 C-627.63635593 557.20472544 -629.39121723 550.81998242 -631.14819336 544.43579102 C-631.74620082 542.26264961 -632.34420803 540.08950813 -632.94221497 537.91636658 C-633.24032389 536.83312544 -633.53843281 535.7498843 -633.84557533 534.63381767 C-634.76025425 531.30895624 -635.67407191 527.98385911 -636.58769226 524.65870667 C-642.02928676 504.85893547 -647.53488647 485.07734571 -653.06341553 465.30169678 C-654.5563129 459.96100879 -656.04613671 454.61946615 -657.53564453 449.27783203 C-661.66706813 434.4661258 -665.80635379 419.6569097 -670.00022888 404.86274719 C-671.43658961 399.79586083 -672.86675741 394.72723343 -674.29533863 389.65814877 C-675.22782807 386.35152434 -676.16420774 383.04611456 -677.11038208 379.74337769 C-678.12443796 376.19863164 -679.12606209 372.65059309 -680.125 369.1015625 C-680.56832924 367.57217293 -680.56832924 367.57217293 -681.02061462 366.0118866 C-681.28451492 365.06517593 -681.54841522 364.11846527 -681.8203125 363.14306641 C-682.04992676 362.33656647 -682.27954102 361.53006653 -682.51611328 360.6991272 C-684.07418946 352.00815546 -682.04154471 343.66464408 -680.44555664 335.11035156 C-680.17071583 333.60840217 -679.89649641 332.10633895 -679.62284851 330.60417175 C-678.8812591 326.5433961 -678.13093232 322.48427961 -677.37891698 318.42542362 C-676.59235203 314.17211566 -675.81365649 309.9173672 -675.03404236 305.66278076 C-673.72470477 298.52350949 -672.41020252 291.3852057 -671.09204102 284.24755859 C-669.23301201 274.18112388 -667.38362559 264.11293508 -665.53601277 254.04439974 C-664.10017355 246.22195045 -662.6615127 238.40001975 -661.22265625 230.578125 C-661.0684645 229.73964429 -660.91427275 228.90116358 -660.75540853 228.03727436 C-659.86936849 223.21971297 -658.9819477 218.40240994 -658.0923481 213.58550453 C-657.82303469 212.12628146 -657.55414771 210.66697962 -657.28571701 209.20759392 C-656.91942851 207.2167265 -656.55138129 205.2261829 -656.1832428 203.23565674 C-655.97768296 202.12145985 -655.77212313 201.00726295 -655.56033421 199.85930252 C-655.37542392 198.91573269 -655.19051363 197.97216286 -655 197 C-654.85552618 196.2351359 -654.71105236 195.4702718 -654.56220055 194.68223 C-654 193 -654 193 -651.82154846 191.84866333 C-650.86151413 191.54427338 -649.9014798 191.23988342 -648.91235352 190.92626953 C-647.29211525 190.39947098 -647.29211525 190.39947098 -645.6391449 189.86203003 C-644.46014114 189.49763824 -643.28113739 189.13324646 -642.06640625 188.7578125 C-640.23693199 188.1714653 -640.23693199 188.1714653 -638.37049866 187.57327271 C-634.58532584 186.36515351 -630.79377042 185.18079761 -627 184 C-624.84335934 183.31940663 -622.68693436 182.63812932 -620.53076172 181.95605469 C-614.00795919 179.90201685 -607.47334637 177.88707198 -600.9375 175.875 C-596.5660556 174.52605887 -592.19496102 173.17598702 -587.82402039 171.82541466 C-586.50251999 171.41715503 -585.18097635 171.00903537 -583.85939026 170.60105324 C-573.10320956 167.2803071 -562.3581476 163.92488196 -551.61696815 160.55595398 C-546.53921791 158.96408453 -541.46030999 157.37591148 -536.38143826 155.78762436 C-532.22623405 154.48779835 -528.07184787 153.18546598 -523.91915894 151.87762451 C-519.99318411 150.64124328 -516.06524674 149.41130413 -512.13580513 148.18598747 C-510.68467645 147.73219274 -509.23428682 147.27602674 -507.78471184 146.81729317 C-494.17359863 142.51223674 -494.17359863 142.51223674 -487 142 C-486.6095752 142.83096191 -486.21915039 143.66192383 -485.81689453 144.51806641 C-475.67786425 166.0925353 -465.49434258 187.64558646 -455.28222656 209.18554688 C-451.14497185 217.91253401 -447.01162028 226.64137073 -442.87756348 235.36987305 C-441.75433769 237.74138532 -440.63108559 240.11288513 -439.5078125 242.484375 C-439.13696533 243.26731934 -438.76611816 244.05026367 -438.3840332 244.85693359 C-436.11479642 249.64748988 -433.84463843 254.43760849 -431.5737915 259.22740173 C-418.61848933 286.55362078 -418.61848933 286.55362078 -413.73620605 296.92895508 C-413.02573012 298.43856476 -412.31455689 299.94784647 -411.60266113 301.45678711 C-409.89142339 305.08716813 -408.19359009 308.72262839 -406.52441406 312.37255859 C-403.44401526 319.07417467 -400.32554316 325.54144244 -396.10986328 331.62817383 C-390.59062083 341.83813713 -391.08875162 349.7192842 -393.27197266 360.80566406 C-393.5617787 362.38449403 -393.84884347 363.96382923 -394.13340187 365.54361343 C-394.74740192 368.93320313 -395.37558092 372.31973865 -396.01380157 375.70484924 C-397.01074405 381.01841986 -397.94772853 386.34140865 -398.87030029 391.66833496 C-399.1883101 393.50271997 -399.50632043 395.33710489 -399.82433128 397.17148972 C-399.98439997 398.09505437 -400.14446867 399.01861903 -400.30938792 399.9701705 C-401.15233882 404.81646422 -402.00796015 409.66051374 -402.86361694 414.50457764 C-403.038763 415.4964276 -403.21390906 416.48827755 -403.39436257 417.51018357 C-403.75418042 419.54762929 -404.11404433 421.58506688 -404.47395277 423.6224966 C-405.41205648 428.93522782 -406.34819883 434.24830467 -407.28457642 439.56134033 C-409.04675003 449.55830597 -410.81060945 459.55497335 -412.57512248 469.55152631 C-414.58866303 480.95940352 -416.60025135 492.36762472 -418.61170077 503.7758708 C-422.73900903 527.18428889 -426.86868742 550.59228832 -431 574 C-423.39477923 547.40203051 -415.79147415 520.80362696 -408.25 494.1875 C-407.86520144 492.82997132 -407.48038439 491.47244788 -407.09555054 490.1149292 C-388.84873426 425.7463556 -370.68483964 361.35425506 -352.50750732 296.96603394 C-349.12662016 284.99022807 -345.74528654 273.01454833 -342.36367798 261.03894615 C-341.55234117 258.16568054 -340.74101289 255.29241251 -339.9296875 252.41914368 C-339.66385235 251.47770225 -339.3980172 250.53626081 -339.12412643 249.56629086 C-338.59116996 247.67885305 -338.05821351 245.79141523 -337.52525711 243.90397739 C-336.25422764 239.40270386 -334.9831822 234.90143484 -333.71209717 230.400177 C-333.47428402 229.55797009 -333.23647087 228.71576319 -332.99145126 227.84803486 C-332.51779364 226.17074391 -332.04405199 224.49347668 -331.57022476 222.81623363 C-330.4186076 218.73927178 -329.2685112 214.66189389 -328.12182617 210.58354187 C-326.00031506 203.043735 -323.86404921 195.50903378 -321.67800808 187.98764229 C-320.64730448 184.43773696 -319.62492368 180.8854584 -318.60320473 177.33295822 C-318.11810129 175.65490321 -317.62901107 173.97799446 -317.13551903 172.30238724 C-313.5886347 160.25463409 -310.5158735 149.41220067 -314 137 C-313.74722543 134.11725876 -313.49027648 132.53037106 -311.50732422 130.38525391 C-310.8629541 129.92038574 -310.21858398 129.45551758 -309.5546875 128.9765625 C-308.81992188 128.43854004 -308.08515625 127.90051758 -307.328125 127.34619141 C-306.51859375 126.77819824 -305.7090625 126.21020508 -304.875 125.625 C-304.02679687 125.0170459 -303.17859375 124.4090918 -302.3046875 123.78271484 C-276.49776969 105.46374175 -249.29933825 89.15469565 -221 75 C-220.13149414 74.55914062 -219.26298828 74.11828125 -218.36816406 73.6640625 C-190.35740041 59.49625387 -160.6127198 48.3174722 -131 38 C-130.26297852 37.74301331 -129.52595703 37.48602661 -128.76660156 37.22125244 C-92.32314502 24.54697284 -55.34497665 13.49219853 -18.0625 3.5625 C-16.99817749 3.27758194 -16.99817749 3.27758194 -15.91235352 2.98690796 C-4.70172297 0 -4.70172297 0 0 0 Z M-495 166 C-494 168 -494 168 -494 168 Z M-496 170 C-495 173 -495 173 -495 173 Z M-433 579 C-432 582 -432 582 -432 582 Z " fill="#358B82" transform="translate(1728,416)"/>
<path d="M0 0 C-1.58337478 3.93638995 -4.13854708 6.26496671 -7.19921875 9.1484375 C-8.2553279 10.16456426 -9.31063951 11.18152047 -10.36523438 12.19921875 C-12.01150953 13.77822465 -13.66210154 15.35123832 -15.32788086 16.90966797 C-25.49411898 26.45360817 -33.35268312 36.45336432 -34.22265625 50.98828125 C-33.67450547 58.40274175 -31.34919134 65.25043848 -28.68359375 72.140625 C-28.35570862 73.00330994 -28.02782349 73.86599487 -27.69000244 74.75482178 C-26.61149131 77.588741 -25.52444129 80.4193047 -24.4375 83.25 C-23.66901947 85.26537412 -22.9012096 87.28100409 -22.1340332 89.296875 C-20.54313302 93.47560898 -18.94937313 97.65323495 -17.35351562 101.83007812 C-14.1194821 110.30048092 -10.91882 118.78343392 -7.71878052 127.26672363 C-6.32189084 130.96900005 -4.92325784 134.67061694 -3.52467346 138.37225342 C2.08046819 153.207854 7.67837821 168.04618397 13.2769165 182.88427734 C21.15345238 203.7596061 29.03689839 224.63231801 36.92333984 245.50390625 C39.02854524 251.07543587 41.13345109 256.64707862 43.23828125 262.21875 C43.76526108 263.61369438 43.76526108 263.61369438 44.30288696 265.03681946 C46.07800368 269.73568924 47.85303334 274.43459189 49.62792969 279.13354492 C53.15508194 288.47122919 56.6835799 297.80840105 60.21484375 307.14453125 C64.09937297 317.41536721 67.97823185 327.68833488 71.85388184 337.96252441 C73.0676722 341.17934682 74.28234863 344.39583386 75.49707031 347.61230469 C77.61366116 353.21802905 79.7265125 358.82515128 81.83694458 364.43319702 C82.6503132 366.59299157 83.46481721 368.75235889 84.28048706 370.9112854 C85.41013235 373.90194423 86.53565901 376.89412116 87.66015625 379.88671875 C87.99987457 380.7833725 88.3395929 381.68002625 88.68960571 382.60385132 C88.99578827 383.42124786 89.30197083 384.23864441 89.61743164 385.08081055 C89.88592422 385.79335495 90.15441681 386.50589935 90.43104553 387.24003601 C91 389 91 389 91 391 C65.62385688 391.81571598 40.26251691 392.09300926 14.875 392.0625 C13.79891542 392.06121597 13.79891542 392.06121597 12.70109177 392.05990601 C3.80070464 392.04849821 -5.09964996 392.02839674 -14 392 C-18.9170806 382.95959276 -23.56538578 373.87904389 -27.8125 364.5 C-33.19970261 352.74551335 -38.81009065 341.11069731 -44.5 329.5 C-50.47671901 317.29858721 -56.34008418 305.06344354 -62.0078125 292.71484375 C-66.68715625 282.56842754 -71.58568676 272.53419001 -76.5 262.5 C-82.47592348 250.29818282 -88.34007216 238.06346972 -94.0078125 225.71484375 C-98.68715625 215.56842754 -103.58568676 205.53419001 -108.5 195.5 C-114.47592348 183.29818282 -120.34007216 171.06346972 -126.0078125 158.71484375 C-130.68715828 148.56842313 -135.58581037 138.53425453 -140.5 128.5 C-146.62691528 115.98842861 -152.6610978 103.44870189 -158.46923828 90.78540039 C-161.07975652 85.10101601 -163.73860013 79.44663707 -166.49609375 73.83203125 C-167.06271729 72.67364746 -167.62934082 71.51526367 -168.21313477 70.32177734 C-169.29497037 68.11869153 -170.38490033 65.91955605 -171.48413086 63.72509766 C-171.96116455 62.75233887 -172.43819824 61.77958008 -172.9296875 60.77734375 C-173.35491699 59.92390381 -173.78014648 59.07046387 -174.21826172 58.19116211 C-175 56 -175 56 -174 53 C-171.58856201 51.92756653 -171.58856201 51.92756653 -168.31542969 50.92895508 C-167.07967194 50.54528778 -165.84391418 50.16162048 -164.57070923 49.7663269 C-163.18781872 49.35054793 -161.80487204 48.93495574 -160.421875 48.51953125 C-158.97405564 48.0747649 -157.52658398 47.62886536 -156.07943726 47.18191528 C-152.95255585 46.21868258 -149.82346493 45.26313557 -146.69244385 44.31344604 C-141.7208632 42.8054128 -136.75430525 41.281319 -131.78857422 39.75415039 C-126.58382025 38.15423139 -121.37875665 36.55536402 -116.17196655 34.96208191 C-103.65205942 31.13024593 -91.14597357 27.25571891 -78.6484375 23.3515625 C-77.78180984 23.08088896 -76.91518219 22.81021542 -76.02229309 22.53133965 C-70.88814638 20.92761425 -65.75433849 19.32280645 -60.62062073 17.71770859 C-24.0862985 6.2959442 -24.0862985 6.2959442 -10.9921875 2.31640625 C-10.19749054 2.07196274 -9.40279358 1.82751923 -8.58401489 1.57566833 C-5.61447309 0.6814689 -3.12028012 0 0 0 Z " fill="#0B2C3D" transform="translate(1021,626)"/>
<path d="M0 0 C-1.24249717 9.66838107 -3.40768809 18.92838271 -6.015625 28.30078125 C-6.42341319 29.78730352 -6.83055446 31.27400338 -7.23710632 32.76086426 C-8.33625103 36.77365721 -9.44429865 40.78394184 -10.55399704 44.79382706 C-11.73736922 49.07617592 -12.91227646 53.36084681 -14.08813477 57.64526367 C-16.06286654 64.83637258 -18.04252263 72.02610895 -20.02587891 79.21484375 C-22.63538206 88.67332714 -25.23666926 98.13404839 -27.83444595 107.59575844 C-31.70604706 121.69678156 -35.58309063 135.79629956 -39.46484375 149.89453125 C-43.14658203 163.26636367 -46.82665737 176.63865099 -50.50390625 190.01171875 C-50.73066481 190.83636942 -50.95742336 191.66102009 -51.19105339 192.51066017 C-52.336069 196.67477199 -53.48104658 200.83889427 -54.62600708 205.00302124 C-56.68793459 212.50201057 -58.7501994 220.00090713 -60.81243706 227.49981117 C-61.95830502 231.66653703 -63.10415143 235.83326881 -64.25 240 C-64.70833323 241.6666667 -65.16666656 243.33333336 -65.625 245 C-65.851875 245.825 -66.07875 246.65 -66.3125 247.5 C-67 250 -67.6875 252.5 -68.375 255 C-68.60187783 255.82501039 -68.82875566 256.65002077 -69.06250858 257.50003147 C-69.52081313 259.16659328 -69.97911785 260.83315505 -70.43742275 262.49971676 C-71.58369799 266.66798731 -72.72997014 270.83625872 -73.87623596 275.00453186 C-75.93345585 282.48538045 -77.99069653 289.96622332 -80.0480547 297.44703388 C-81.18699984 301.58838292 -82.3259266 305.72973701 -83.46484375 309.87109375 C-83.69062544 310.69208494 -83.91640713 311.51307613 -84.14903069 312.35894585 C-86.73156852 321.74972782 -89.31368931 331.14062428 -91.89501953 340.53173828 C-92.1359263 341.4081749 -92.37683308 342.28461151 -92.62504005 343.18760681 C-93.59791693 346.7270402 -94.57078328 350.26647648 -95.54358292 353.80593109 C-98.14035495 363.25405227 -100.73801159 372.70192781 -103.33886719 382.14892578 C-104.012291 384.59515827 -104.68570381 387.0413938 -105.35910416 389.48763275 C-105.79734085 391.07958365 -106.23560102 392.67152809 -106.67388535 394.26346588 C-109.19845072 403.43421084 -111.71465369 412.6071439 -114.2151947 421.7844696 C-115.44601073 426.29993014 -116.68142223 430.81412505 -117.91769409 435.32809448 C-118.46564723 437.33404136 -119.01122237 439.34063957 -119.55422974 441.34793091 C-120.27503369 444.01225709 -121.00367285 446.67431224 -121.734375 449.3359375 C-121.93846481 450.09932938 -122.14255463 450.86272125 -122.35282898 451.64924622 C-123.77197042 456.77197042 -123.77197042 456.77197042 -126 459 C-131.55331698 440.23263024 -136.82835791 421.3920566 -142.06357574 402.53425598 C-143.24157762 398.29237035 -144.42140278 394.05099188 -145.60107422 389.80957031 C-147.37902034 383.41654234 -149.1564456 377.02336997 -150.93324089 370.63002205 C-156.1145778 351.98649833 -161.30406472 333.34524337 -166.49337769 314.70393848 C-168.20876857 308.5417683 -169.92391368 302.37952982 -171.63865662 296.2171793 C-172.18491584 294.25422799 -172.73127159 292.29130353 -173.27772522 290.32840633 C-174.6098231 285.54321831 -175.94061525 280.75767592 -177.26843262 275.97129822 C-179.68506911 267.26676949 -182.11641111 258.56716668 -184.60050392 249.88161087 C-185.73611974 245.90889608 -186.86442178 241.93411937 -187.99236679 237.95922089 C-188.52745952 236.08196748 -189.06630091 234.20577793 -189.60916519 232.33075714 C-190.35806555 229.74359485 -191.09410065 227.15307672 -191.82763672 224.56152344 C-192.04920315 223.8092321 -192.27076958 223.05694077 -192.49905014 222.28185272 C-195.31458502 212.20654431 -193.33130931 203.21774534 -191.44555664 193.11035156 C-191.17071583 191.60840217 -190.89649641 190.10633895 -190.62284851 188.60417175 C-189.8812591 184.5433961 -189.13093232 180.48427961 -188.37891698 176.42542362 C-187.59235203 172.17211566 -186.81365649 167.9173672 -186.03404236 163.66278076 C-184.72470477 156.52350949 -183.41020252 149.3852057 -182.09204102 142.24755859 C-180.23301201 132.18112388 -178.38362559 122.11293508 -176.53601277 112.04439974 C-175.10017355 104.22195045 -173.6615127 96.40001975 -172.22265625 88.578125 C-172.0684645 87.73964429 -171.91427275 86.90116358 -171.75540853 86.03727436 C-170.86936849 81.21971297 -169.9819477 76.40240994 -169.0923481 71.58550453 C-168.82303469 70.12628146 -168.55414771 68.66697962 -168.28571701 67.20759392 C-167.91942851 65.2167265 -167.55138129 63.2261829 -167.1832428 61.23565674 C-166.87490304 59.5643614 -166.87490304 59.5643614 -166.56033421 57.85930252 C-166.37542392 56.91573269 -166.19051363 55.97216286 -166 55 C-165.85552618 54.2351359 -165.71105236 53.4702718 -165.56220055 52.68223 C-165 51 -165 51 -162.82154846 49.84866333 C-161.86151413 49.54427338 -160.9014798 49.23988342 -159.91235352 48.92626953 C-158.83219467 48.5750705 -157.75203583 48.22387146 -156.6391449 47.86203003 C-155.46014114 47.49763824 -154.28113739 47.13324646 -153.06640625 46.7578125 C-151.84675674 46.36691437 -150.62710724 45.97601624 -149.37049866 45.57327271 C-145.58532584 44.36515351 -141.79377042 43.18079761 -138 42 C-135.84335934 41.31940663 -133.68693436 40.63812932 -131.53076172 39.95605469 C-125.007973 37.90197103 -118.47312071 35.8878016 -111.9375 33.875 C-109.49915983 33.12152371 -107.06093078 32.36768779 -104.62280273 31.61352539 C-100.70542699 30.40180788 -96.78800244 29.19025091 -92.87019348 27.97993469 C-76.77187063 23.00619091 -60.68258361 18.00336327 -44.5930481 13.00128174 C-40.41830761 11.70343541 -36.24337979 10.40619295 -32.06838226 9.10917377 C-28.93266622 8.13497652 -25.79703204 7.16051596 -22.66141891 6.18598747 C-21.19299666 5.72965886 -19.72454468 5.27342588 -18.25606155 4.81729317 C-16.24166216 4.19155574 -14.22738296 3.56543293 -12.21313477 2.93920898 C-11.08013443 2.58712875 -9.94713409 2.23504852 -8.77980042 1.87229919 C-2.8132489 0 -2.8132489 0 0 0 Z " fill="#0B2C3D" transform="translate(1239,558)"/>
<path d="M0 0 C2.37466762 2.37466762 3.04086366 4.37236734 4.25 7.5 C10.18045292 21.94685916 18.0583989 32.70677654 32.27734375 39.625 C40.58040017 42.69181622 48.83480113 43.34333809 57.625 43.625 C58.62917969 43.66367187 59.63335938 43.70234375 60.66796875 43.7421875 C63.11181005 43.83528622 65.55566596 43.92110913 68 44 C65.15584037 45.89610642 62.6727987 46.96430261 59.5 48.1875 C46.45229409 53.56101173 35.11968349 61.02509413 29 74 C31.97 74 34.94 74 38 74 C38 76.3125 38 76.3125 37 79 C33.47856019 81.02127487 30.04735389 82 26 82 C23.48821164 99.44501544 23.48821164 99.44501544 22 117 C19.27539366 114.27539366 18.48966059 111.06371937 17.25 107.5 C14.85685386 100.83455601 11.9901423 94.88616736 8 89 C1.5654192 89.64397704 -4.47742085 91.0137804 -10.72265625 92.66796875 C-11.7599437 92.93910995 -12.79723114 93.21025116 -13.86595154 93.48960876 C-17.26667766 94.38195499 -20.66480755 95.28367537 -24.0625 96.1875 C-25.23393555 96.49790222 -26.40537109 96.80830444 -27.61230469 97.12811279 C-51.89753759 103.57547966 -76.00086091 110.56123679 -100 118 C-100.83108276 118.25718811 -101.66216553 118.51437622 -102.51843262 118.77935791 C-139.41481691 130.2195761 -175.68577863 143.32313697 -211 159 C-212.77213867 159.78286377 -212.77213867 159.78286377 -214.58007812 160.58154297 C-253.90123605 178.04346 -292.86080764 200.38400636 -326 228 C-326.53625 228.44601562 -327.0725 228.89203125 -327.625 229.3515625 C-355.65396142 252.75074012 -376.30358981 281.86745995 -381.7265625 318.75390625 C-382.48463293 327.75328518 -382.76305484 337.1142036 -381 346 C-383 345 -383 345 -384 342.4375 C-392.03105239 314.8307574 -388.33770037 290.06502251 -377 264 C-388.51775707 283.32010864 -393.20464164 301.78425728 -396 324 C-400.22307218 319.77692782 -399.27195021 312.83355165 -399.3125 307.1875 C-399.3125 270.10449355 -372.1862966 240.51373355 -349 214 C-348.18273438 213.05769531 -347.36546875 212.11539063 -346.5234375 211.14453125 C-341.99872739 206.00564228 -337.28852236 201.35186309 -332 197 C-348.35875954 206.8671883 -362.88141134 221.21623578 -374.69140625 236.125 C-377.37845096 239.47130272 -380.18414075 242.69976935 -383 245.9375 C-388.31448913 252.07494332 -393.23362054 258.42817377 -398 265 C-398.66 264.67 -399.32 264.34 -400 264 C-390.25682954 244.34143132 -377.78419621 227.4509694 -363.01953125 211.23828125 C-360.59747853 208.55387852 -358.28517492 205.80118216 -356 203 C-362.62391498 200.20691585 -369.24733426 197.46732017 -376 195 C-376 194.34 -376 193.68 -376 193 C-375.47176636 192.85347488 -374.94353271 192.70694977 -374.39929199 192.5559845 C-368.80294585 190.99517055 -363.22459984 189.37900832 -357.65283203 187.73266602 C-355.58355535 187.12873975 -353.51034407 186.53810328 -351.43310547 185.9621582 C-337.41480294 182.06291552 -327.2685815 177.34139885 -316.57073975 167.42282104 C-313.32201802 164.48003587 -309.69638114 162.06086504 -306.0625 159.625 C-304.89835571 158.83875244 -304.89835571 158.83875244 -303.71069336 158.03662109 C-252.63821964 123.98163372 -194.38840066 97.02855317 -136.3125 77.1875 C-135.63074707 76.95095703 -134.94899414 76.71441406 -134.24658203 76.47070312 C-130.39232404 75.21159888 -127.04672638 74.78243407 -123 75 C-126.82081126 79.21989019 -130.6356781 81.7407946 -135.6875 84.3125 C-136.48712158 84.72636963 -137.28674316 85.14023926 -138.1105957 85.56665039 C-157.50063253 95.46285439 -177.40929682 104.38887899 -197.22729492 113.38574219 C-204.32465736 116.63161349 -211.22543558 120.12314966 -218 124 C-213.72963727 124 -210.95028533 122.91630243 -207.140625 121.24609375 C-205.72161749 120.64022666 -204.30250422 120.03460721 -202.88330078 119.42919922 C-202.13083069 119.10530212 -201.3783606 118.78140503 -200.60308838 118.44769287 C-96.07755469 73.57434688 -96.07755469 73.57434688 -74 76 C-72 78 -72 78 -71.5 80.375 C-72 83 -72 83 -74.3996582 84.92749023 C-78.67397353 87.60718771 -83.36179615 89.13927281 -88.10546875 90.78515625 C-89.06649002 91.12751816 -90.02751129 91.46988007 -91.01765442 91.82261658 C-95.10892163 93.2799223 -99.20687083 94.71800859 -103.30444336 96.1574707 C-106.30310457 97.21399259 -109.29807043 98.28052413 -112.29296875 99.34765625 C-113.22110886 99.66960464 -114.14924896 99.99155304 -115.10551453 100.32325745 C-115.96683487 100.63045212 -116.82815521 100.93764679 -117.71557617 101.25415039 C-118.47247238 101.51966202 -119.22936859 101.78517365 -120.00920105 102.05873108 C-122.15930075 103.07531893 -123.4323115 104.2304562 -125 106 C-124.08154297 105.72027344 -123.16308594 105.44054687 -122.21679688 105.15234375 C-99.78681427 98.33145495 -77.2947126 91.7436866 -54.75 85.3125 C-53.49856201 84.95534912 -52.24712402 84.59819824 -50.95776367 84.23022461 C-47.38365493 83.21082786 -43.80914863 82.19284374 -40.234375 81.17578125 C-39.15690002 80.86900955 -38.07942505 80.56223785 -36.96929932 80.24617004 C-35.97621765 79.96424301 -34.98313599 79.68231598 -33.95996094 79.3918457 C-33.09465759 79.14602249 -32.22935425 78.90019928 -31.33782959 78.64692688 C-27.68984158 77.63745146 -24.55040947 76.87415984 -20.75 76.9375 C-18.89375 76.9684375 -18.89375 76.9684375 -17 77 C-16.67 78.32 -16.34 79.64 -16 81 C-16.58523438 81.20753906 -17.17046875 81.41507812 -17.7734375 81.62890625 C-23.98500787 83.8579833 -30.15606259 86.18618799 -36.3125 88.5625 C-37.07675293 88.85519775 -37.84100586 89.14789551 -38.62841797 89.44946289 C-42.87496013 91.0967724 -46.95751228 92.88556684 -51 95 C-41.13545304 92.42084257 -31.44339249 89.34765574 -21.73828125 86.22851562 C-14.53766989 83.95603607 -7.47310418 82.10922877 0 81 C-5.88943207 73.93268152 -14.28156758 71.63705704 -23.15234375 70.3046875 C-32.0743333 69.59817462 -41.05757804 69.85224773 -50 70 C-47.28572235 67.28572235 -44.04829671 66.20700712 -40.5625 64.75 C-20.22557537 56.1499624 -20.22557537 56.1499624 -6 40 C-3.10226381 32.60781583 -0.9946278 25.43405375 -0.68359375 17.48046875 C-0.64169922 16.45888672 -0.59980469 15.43730469 -0.55664062 14.38476562 C-0.49766602 12.80211914 -0.49766602 12.80211914 -0.4375 11.1875 C-0.39431641 10.11306641 -0.35113281 9.03863281 -0.30664062 7.93164062 C-0.20089017 5.28787918 -0.09879767 2.6440289 0 0 Z " fill="#EEA703" transform="translate(1740,319)"/>
<path d="M0 0 C9.24 0 18.48 0 28 0 C30.97 18.15 33.94 36.3 37 55 C40.36384156 42.42908318 40.36384156 42.42908318 43.359375 29.78515625 C43.55347961 28.91853867 43.74758423 28.05192108 43.9475708 27.15904236 C44.5512435 24.46082451 45.15071784 21.76169597 45.75 19.0625 C46.16508309 17.20371316 46.58044597 15.34498877 46.99609375 13.48632812 C48.0011281 8.99170242 49.0004451 4.49586124 50 0 C59.57 0 69.14 0 79 0 C79.85464844 3.80273438 80.70929688 7.60546875 81.58984375 11.5234375 C82.41661158 15.19382611 83.24427254 18.86401223 84.07202148 22.53417969 C84.6481528 25.0909351 85.22335097 27.64790096 85.79760742 30.20507812 C86.62174932 33.87425173 87.44921102 37.54266286 88.27734375 41.2109375 C88.53466782 42.35992523 88.79199188 43.50891296 89.05711365 44.69271851 C89.41737389 46.28414169 89.41737389 46.28414169 89.78491211 47.90771484 C89.99587021 48.84481293 90.20682831 49.78191101 90.42417908 50.74740601 C90.91900094 53.01447324 90.91900094 53.01447324 92 55 C94.97 36.85 97.94 18.7 101 0 C110.24 0 119.48 0 129 0 C127.87496145 9.00030844 127.87496145 9.00030844 127.16516113 12.06834412 C127.0053627 12.7678569 126.84556427 13.46736969 126.68092346 14.18807983 C126.50842575 14.92450714 126.33592804 15.66093445 126.15820312 16.41967773 C125.88241676 17.61870979 125.88241676 17.61870979 125.60105896 18.84196472 C124.99847973 21.45678956 124.39006763 24.07021499 123.78125 26.68359375 C123.35884156 28.50816695 122.93668559 30.33279862 122.51477051 32.15748596 C121.63305936 35.96652213 120.74848088 39.77487759 119.86181641 43.58276367 C118.7232844 48.47326918 117.59170554 53.36535261 116.46219635 58.25794888 C115.59328804 62.01849439 114.72088939 65.77822329 113.84739685 69.53770638 C113.42849219 71.34246544 113.01065455 73.14747251 112.59388733 74.95272636 C112.01338926 77.46468289 111.42824658 79.97551131 110.84179688 82.48608398 C110.66929916 83.23668091 110.49680145 83.98727783 110.31907654 84.76062012 C109.11429243 89.88570757 109.11429243 89.88570757 108 91 C105.62458949 91.08838648 103.2776642 91.11537523 100.90234375 91.09765625 C98.95702759 91.09390991 98.95702759 91.09390991 96.97241211 91.09008789 C95.31089111 91.08098389 93.64937012 91.07187988 91.9375 91.0625 C86.678125 91.041875 81.41875 91.02125 76 91 C72.37 74.83 68.74 58.66 65 42 C64.67 42 64.34 42 64 42 C58.555 66.255 58.555 66.255 53 91 C42.44 91 31.88 91 21 91 C19.26370059 86.65925148 18.06824431 82.49578492 17.02880859 77.96850586 C16.8431987 77.17440811 16.65758881 76.38031036 16.46635437 75.56214905 C15.85634926 72.94730036 15.25218656 70.33114342 14.6484375 67.71484375 C14.22553315 65.89306066 13.80240366 64.07132983 13.37905884 62.24964905 C12.49389682 58.4364849 11.61166203 54.62265824 10.73144531 50.80834961 C9.60283037 45.91883894 8.46665487 41.03112179 7.32825279 36.1438818 C6.45351286 32.38456925 5.58292633 28.62430429 4.71358109 24.86374092 C4.29625417 23.060904 3.87759798 21.25837425 3.45759201 19.45615959 C2.87161619 16.93909831 2.29127732 14.42080201 1.71240234 11.90209961 C1.5378804 11.15757538 1.36335846 10.41305115 1.18354797 9.64596558 C0.42154376 6.30514845 0 3.45097705 0 0 Z " fill="#0B2C3D" transform="translate(891,1061)"/>
<path d="M0 0 C57.11909651 0 57.11909651 0 71 13 C80.21912025 22.7010288 83.35346883 35.13307848 83.140625 48.1875 C82.54251973 60.14960539 77.99723394 71.70527012 69.25 80.0625 C49.45959259 96.21916038 24.77003338 91 0 91 C0 60.97 0 30.94 0 0 Z M25 23 C25 37.85 25 52.7 25 68 C38.19573309 68.05269657 38.19573309 68.05269657 49.875 63.3125 C54.95059893 57.7890541 57.11438274 51.47300595 57 44 C56.22373719 36.78672713 53.99202361 31.44801932 48.25 26.75 C40.31416966 22.47686058 34.30102919 23 25 23 Z " fill="#378D83" transform="translate(1430,1061)"/>
<path d="M0 0 C9.24 0 18.48 0 28 0 C29.53269531 4.21136719 31.06539062 8.42273437 32.64453125 12.76171875 C33.64236747 15.50072819 34.64032005 18.23969421 35.63867188 20.97851562 C37.20804066 25.28386483 38.77707788 29.58933177 40.34350586 33.89575195 C41.85839781 38.06018046 43.37579225 42.22369182 44.89453125 46.38671875 C45.14509403 47.07406979 45.39565681 47.76142082 45.65381241 48.46960068 C48.45558417 56.14934605 51.29362979 63.81312107 54.21630859 71.44775391 C54.47458152 72.12326325 54.73285444 72.7987726 54.99895382 73.49475193 C56.22797327 76.70604547 57.46366444 79.91441005 58.70869446 83.11955261 C59.14215683 84.24646011 59.5756192 85.37336761 60.0222168 86.53442383 C60.4054863 87.52162918 60.7887558 88.50883453 61.18363953 89.5259552 C62 92 62 92 62 95 C53.75 95 45.5 95 37 95 C34.88455778 89.71139445 32.80123414 84.40370243 31 79 C13.675 78.505 13.675 78.505 -4 78 C-4.66 80.97 -5.32 83.94 -6 87 C-6.99 89.64 -7.98 92.28 -9 95 C-17.25 95 -25.5 95 -34 95 C-33.31857073 90.91142439 -32.76926016 87.9695229 -31.36450195 84.24023438 C-31.02890259 83.34100754 -30.69330322 82.4417807 -30.34753418 81.51530457 C-29.98148071 80.55119156 -29.61542725 79.58707855 -29.23828125 78.59375 C-28.66394348 77.0608709 -28.66394348 77.0608709 -28.07800293 75.49702454 C-26.82769566 72.16283513 -25.57004988 68.83146362 -24.3125 65.5 C-23.01706842 62.05011224 -21.72356616 58.59950487 -20.43009949 55.14888 C-19.55818901 52.82335385 -18.68563783 50.49806783 -17.81245422 48.17301941 C-13.76862679 37.40224034 -9.78118062 26.61115429 -5.8125 15.8125 C-5.21333227 14.18358097 -4.61413091 12.55467431 -4.01489258 10.92578125 C-2.67538504 7.28429678 -1.337709 3.64214734 0 0 Z M13 28 C8.05 43.345 8.05 43.345 3 59 C9.93 59 16.86 59 24 59 C22.46315461 52.08419573 20.73080447 45.67374561 18.5 39 C18.19191406 38.04738281 17.88382813 37.09476563 17.56640625 36.11328125 C17.11587891 34.75783203 17.11587891 34.75783203 16.65625 33.375 C16.38619141 32.55773438 16.11613281 31.74046875 15.83789062 30.8984375 C15.15886108 28.81372349 15.15886108 28.81372349 13 28 Z " fill="#0B2C3D" transform="translate(1215,1057)"/>
<path d="M0 0 C9.39203954 9.55975453 10 19.70947868 10 33 C-5.51 33 -21.02 33 -37 33 C-35.67926352 39.49678254 -35.67926352 39.49678254 -33.3125 41.9375 C-29.94503746 43.48471252 -27.66297593 43.51410188 -24 43 C-23.23792236 42.1747583 -22.47584473 41.3495166 -21.69067383 40.49926758 C-18.34367328 37.39036234 -16.87948001 37.40914429 -12.38671875 37.51171875 C-11.13955078 37.52783203 -9.89238281 37.54394531 -8.60742188 37.56054688 C-7.31384766 37.60244141 -6.02027344 37.64433594 -4.6875 37.6875 C-3.37458984 37.71005859 -2.06167969 37.73261719 -0.70898438 37.75585938 C2.5285013 37.81472275 5.76367 37.89691196 9 38 C6.46241729 47.81533642 2.76450704 54.39809636 -6.08203125 59.92578125 C-16.99309126 65.56293802 -27.69524316 66.68474438 -39.6875 63.5625 C-49.04850689 60.31780317 -54.99944238 54.51691086 -59.5625 45.8125 C-64.25008007 35.89289005 -64.61770627 23.38206329 -61 13 C-56.68182002 3.03107668 -50.57171755 -2.92657676 -40.5546875 -7.06640625 C-27.04480962 -12.0035023 -10.90424322 -9.37083402 0 0 Z M-36 16 C-36.33 17.98 -36.66 19.96 -37 22 C-30.07 22 -23.14 22 -16 22 C-17.08620718 16.56896408 -17.62647282 15.18903023 -22 12 C-27.64154389 10.81445817 -32.15403533 11.43291696 -36 16 Z " fill="#378D83" transform="translate(1582,1088)"/>
<path d="M0 0 C9.39203954 9.55975453 10 19.70947868 10 33 C-5.51 33 -21.02 33 -37 33 C-35.67926352 39.49678254 -35.67926352 39.49678254 -33.3125 41.9375 C-29.94503746 43.48471252 -27.66297593 43.51410188 -24 43 C-23.23792236 42.1747583 -22.47584473 41.3495166 -21.69067383 40.49926758 C-18.34367328 37.39036234 -16.87948001 37.40914429 -12.38671875 37.51171875 C-11.13955078 37.52783203 -9.89238281 37.54394531 -8.60742188 37.56054688 C-7.31384766 37.60244141 -6.02027344 37.64433594 -4.6875 37.6875 C-3.37458984 37.71005859 -2.06167969 37.73261719 -0.70898438 37.75585938 C2.5285013 37.81472275 5.76367 37.89691196 9 38 C8.53884558 39.43608578 8.07311036 40.87070107 7.60546875 42.3046875 C7.34660889 43.10374512 7.08774902 43.90280273 6.82104492 44.72607422 C4.1896525 52.01384973 -1.6498221 57.59290156 -8.34375 61.296875 C-19.46172527 66.41114363 -31.37998242 66.4420381 -42.921875 62.44140625 C-52.67843936 57.87265974 -58.36101794 49.95013175 -62 40 C-64.49333241 28.32390678 -63.66463855 16.44783341 -57.46484375 6.1328125 C-51.83938289 -2.05785851 -44.5883242 -6.17769756 -35.0625 -8.8125 C-21.94496247 -9.61561454 -10.37392782 -8.91509422 0 0 Z M-36 16 C-36.33 17.98 -36.66 19.96 -37 22 C-30.07 22 -23.14 22 -16 22 C-17.08620718 16.56896408 -17.62647282 15.18903023 -22 12 C-27.64154389 10.81445817 -32.15403533 11.43291696 -36 16 Z " fill="#0B2C3D" transform="translate(1089,1088)"/>
<path d="M0 0 C9.24 0 18.48 0 28 0 C32.57048119 14.26881934 36.85564278 28.60196324 41 43 C41.35827881 41.73293213 41.71655762 40.46586426 42.08569336 39.16040039 C43.41114758 34.47618644 44.74091803 29.79320716 46.07202148 25.1105957 C46.64840326 23.08065877 47.22360125 21.05038535 47.79760742 19.01977539 C48.62110122 16.10734994 49.44879299 13.19614649 50.27734375 10.28515625 C50.53466782 9.3716188 50.79199188 8.45808136 51.05711365 7.51686096 C51.29728714 6.67606491 51.53746063 5.83526886 51.78491211 4.96899414 C52.10134926 3.85313683 52.10134926 3.85313683 52.42417908 2.71473694 C53 1 53 1 54 0 C55.99964982 -0.08758003 58.0023611 -0.10696576 60.00390625 -0.09765625 C61.21884766 -0.09443359 62.43378906 -0.09121094 63.68554688 -0.08789062 C64.96494141 -0.07951172 66.24433594 -0.07113281 67.5625 -0.0625 C68.84576172 -0.05798828 70.12902344 -0.05347656 71.45117188 -0.04882812 C74.63416022 -0.03699545 77.81705762 -0.02051068 81 0 C79.58556357 6.99512939 77.57951513 13.6143017 75.26171875 20.359375 C74.89907425 21.42561096 74.53642975 22.49184692 74.16279602 23.59039307 C73.39765872 25.8367502 72.6302176 28.08232381 71.8605957 30.32714844 C70.69639932 33.72403363 69.53998904 37.12349167 68.38476562 40.5234375 C67.63587818 42.71890748 66.88654345 44.91422495 66.13671875 47.109375 C65.62705818 48.60691315 65.62705818 48.60691315 65.10710144 50.13470459 C62.57518184 57.50611318 59.80302323 64.71213959 57 72 C46.44 72 35.88 72 25 72 C22.34570813 65.36427032 19.82209006 58.78896697 17.5390625 52.03125 C17.22601166 51.11146362 16.91296082 50.19167725 16.59042358 49.24401855 C15.59944876 46.33018821 14.61221788 43.41510505 13.625 40.5 C12.97158744 38.57804568 12.31794316 36.65617012 11.6640625 34.734375 C7.73321417 23.17035911 3.85162079 11.59063594 0 0 Z " fill="#378D83" transform="translate(1595,1080)"/>
<path d="M0 0 C8.58 0 17.16 0 26 0 C26 5.61 26 11.22 26 17 C29.96 17 33.92 17 38 17 C38 24.26 38 31.52 38 39 C34.04 39 30.08 39 26 39 C26.33 47.58 26.66 56.16 27 65 C30.12731854 66.71199066 30.12731854 66.71199066 39 67 C39 74.26 39 81.52 39 89 C15.35673209 89.52932689 15.35673209 89.52932689 7.125 83.4375 C1.20872964 77.52403844 -0.33440621 70.4193387 -0.390625 62.2421875 C-0.37891895 59.45186731 -0.31790991 56.6644315 -0.25 53.875 C-0.22989039 52.42710823 -0.21164755 50.97918927 -0.1953125 49.53125 C-0.15170153 46.02025873 -0.0829257 42.5103088 0 39 C-2.97 39 -5.94 39 -9 39 C-9 31.74 -9 24.48 -9 17 C-6.03 17 -3.06 17 0 17 C0 11.39 0 5.78 0 0 Z " fill="#0B2C3D" transform="translate(1348,1063)"/>
<path d="M0 0 C0 9.24 0 18.48 0 28 C-6.435 28.495 -6.435 28.495 -13 29 C-17.08001703 29.88624425 -17.08001703 29.88624425 -20 32 C-22.68400678 37.06537182 -23.45993707 41.38711958 -23.51171875 47.12109375 C-23.52966995 47.86585464 -23.54762115 48.61061554 -23.56611633 49.37794495 C-23.6198231 51.73107423 -23.65398543 54.08400544 -23.6875 56.4375 C-23.72070829 58.04364713 -23.75520115 59.64976824 -23.79101562 61.25585938 C-23.87791993 65.17059511 -23.93832125 69.08446256 -24 73 C-32.58 73 -41.16 73 -50 73 C-50 49.24 -50 25.48 -50 1 C-41.42 1 -32.84 1 -24 1 C-23.67 4.3 -23.34 7.6 -23 11 C-21.824375 9.906875 -20.64875 8.81375 -19.4375 7.6875 C-13.69483023 2.66520047 -7.74534276 0 0 0 Z " fill="#0B2C3D" transform="translate(1336,1079)"/>
<path d="M0 0 C8.58 0 17.16 0 26 0 C26 31.35 26 62.7 26 95 C17.42 95 8.84 95 0 95 C0 63.65 0 32.3 0 0 Z " fill="#0B2C3D" transform="translate(1147,1057)"/>
<path d="M0 0 C8.58 0 17.16 0 26 0 C26 31.35 26 62.7 26 95 C17.42 95 8.84 95 0 95 C0 63.65 0 32.3 0 0 Z " fill="#0B2C3D" transform="translate(1108,1057)"/>
<path d="M0 0 C3.68395896 3.3490536 4.92056122 6.52658158 5.4375 11.4375 C4.90105934 16.35487271 2.85057995 19.7182667 -0.9375 22.875 C-5.00577866 24.23109289 -8.68379346 24.4048986 -12.9375 23.875 C-17.03714471 21.78790815 -19.22291564 20.11103195 -20.9375 15.875 C-21.67401586 11.16472412 -21.35996633 7.70484458 -19.1875 3.4375 C-14.16038852 -2.28782141 -6.9278294 -2.65321126 0 0 Z " fill="#0B2C3D" transform="translate(1414.9375,1128.125)"/>
<path d="M0 0 C-1.25103516 1.14275391 -1.25103516 1.14275391 -2.52734375 2.30859375 C-3.06794434 2.80464111 -3.60854492 3.30068848 -4.16552734 3.81176758 C-5.35270782 4.9009705 -6.54185833 5.98802984 -7.73291016 7.07299805 C-12.02418941 11.01025548 -15.9989057 15.13638252 -19.8046875 19.55078125 C-22 21 -22 21 -25.23046875 20.921875 C-29.45390688 19.88899272 -33.3985269 18.53017832 -37.4375 16.9375 C-38.16904297 16.65583984 -38.90058594 16.37417969 -39.65429688 16.08398438 C-41.43873546 15.39586753 -43.21973905 14.69885394 -45 14 C-45 13.34 -45 12.68 -45 12 C-39.0769679 10.11907559 -33.15047843 8.24964734 -27.22045898 6.39086914 C-25.20285979 5.75666445 -23.18624889 5.11930682 -21.1706543 4.47875977 C-18.27645667 3.55959393 -15.3789162 2.65175537 -12.48046875 1.74609375 C-11.57725388 1.45657333 -10.674039 1.16705292 -9.74345398 0.86875916 C-8.90280899 0.60841385 -8.062164 0.34806854 -7.19604492 0.07983398 C-6.45658127 -0.15333023 -5.71711761 -0.38649445 -4.95524597 -0.62672424 C-3 -1 -3 -1 0 0 Z " fill="#378C81" transform="translate(1409,500)"/>
<path d="M0 0 C0.66 0 1.32 0 2 0 C2.4125 0.94875 2.825 1.8975 3.25 2.875 C5.06528122 6.1165736 5.57247816 6.92277885 9 8 C10.99110401 8.38290462 12.99100513 8.72604615 15 9 C14.236875 9.556875 13.47375 10.11375 12.6875 10.6875 C7.77074969 14.91819212 6.62674745 18.60717605 6 25 C4 24 4 24 2.5 20.5625 C1.0860377 17.90860153 0.38616657 17.14086579 -2.484375 16.09375 C-4.99103865 15.61224399 -7.45922003 15.23759202 -10 15 C-9.39542969 14.55140625 -8.79085938 14.1028125 -8.16796875 13.640625 C-2.6493338 9.4727884 -2.6493338 9.4727884 -0.1875 3.1875 C-0.0946875 1.6096875 -0.0946875 1.6096875 0 0 Z " fill="#EFA803" transform="translate(1796,324)"/>
<path d="M0 0 C-0.5078125 1.80078125 -0.5078125 1.80078125 -2 4 C-4.64594649 5.24155951 -7.12614157 6.25094204 -9.875 7.1875 C-10.59558594 7.44724609 -11.31617188 7.70699219 -12.05859375 7.97460938 C-17.23421794 9.81896164 -21.70774061 11.13542447 -27.25 11.0625 C-28.14203125 11.05347656 -29.0340625 11.04445313 -29.953125 11.03515625 C-30.62859375 11.02355469 -31.3040625 11.01195312 -32 11 C-32 10.01 -32 9.02 -32 8 C-28.60583457 6.8491847 -25.20939392 5.7052339 -21.8125 4.5625 C-20.85279297 4.23701172 -19.89308594 3.91152344 -18.90429688 3.57617188 C-17.97294922 3.26357422 -17.04160156 2.95097656 -16.08203125 2.62890625 C-15.22843018 2.34088135 -14.3748291 2.05285645 -13.49536133 1.75610352 C-8.89983339 0.36364192 -4.8034469 -0.11170807 0 0 Z " fill="#EFA803" transform="translate(1821,381)"/>
<path d="M0 0 C0.66 0 1.32 0 2 0 C2.556875 0.94875 3.11375 1.8975 3.6875 2.875 C6.50206309 6.67846364 8.44939075 7.12488284 13 8 C12.236875 8.474375 11.47375 8.94875 10.6875 9.4375 C7.11391885 12.84486807 6.23150936 16.31425707 5 21 C4.071875 19.824375 4.071875 19.824375 3.125 18.625 C-0.49743253 14.15023041 -2.27243091 13.63639657 -8 13 C-6.35681639 11.27465721 -4.94205954 9.96591738 -2.875 8.75 C-0.11953434 6.17823205 -0.27495157 3.64310825 0 0 Z " fill="#EFA803" transform="translate(1680,335)"/>
<path d="M0 0 C-0.1875 1.8125 -0.1875 1.8125 -1 4 C-4.66125071 6.92900057 -7.3824571 7.32215416 -12 7 C-12.33 6.34 -12.66 5.68 -13 5 C-9.37863252 0.80683766 -5.43991867 -0.3108525 0 0 Z " fill="#EFA803" transform="translate(1651,380)"/>
<path d="M0 0 C0 1.32 0 2.64 0 4 C-2.95664519 5.4783226 -5.74229737 5.06032783 -9 5 C-8.6875 3.0625 -8.6875 3.0625 -8 1 C-5.07175348 0.02391783 -3.04386724 -0.08226668 0 0 Z " fill="#EFA803" transform="translate(1842,349)"/>
</svg>
